<?xml version="1.0" encoding="UTF-8" standalone="no"?>
<!DOCTYPE svg PUBLIC "-//W3C//DTD SVG 1.1//EN" "http://www.w3.org/Graphics/SVG/1.1/DTD/svg11.dtd">
<svg width="100%" height="100%" viewBox="0 0 765 184" version="1.1" xmlns="http://www.w3.org/2000/svg" xmlns:xlink="http://www.w3.org/1999/xlink" xml:space="preserve" xmlns:serif="http://www.serif.com/" style="fill-rule:evenodd;clip-rule:evenodd;stroke-linejoin:round;stroke-miterlimit:2;">
    <g transform="matrix(1,0,0,1,-403.611535,-108.081705)">
        <g transform="matrix(0.712648,0,0,0.712648,219.719845,108.076788)">
            <path d="M454.69,34.87C455.18,34.98 455.55,34.95 455.74,35.12C461.54,40.333 467.323,45.557 473.09,50.79C473.547,51.295 473.962,51.837 474.33,52.41C473.59,53.67 472.78,54.91 472.13,56.22C470.925,58.45 469.879,60.763 469,63.14C466,72.25 473.07,81.14 479.8,83.25C482.916,84.396 486.304,84.587 489.53,83.8C490.942,83.508 492.372,83.314 493.81,83.22C498.03,89.41 503.58,107.95 503.81,116.48C503.06,116.94 502.21,117.48 501.33,118C499.26,119.2 497.11,120.26 495.12,121.58C486.73,127.13 485.9,141.73 494.9,147.87C496.63,149.05 498.45,150.09 500.26,151.15C501.41,151.82 502.6,152.42 503.88,153.15C504.001,154.19 504.001,155.24 503.88,156.28C502.193,162.947 500.45,169.613 498.65,176.28C497.92,178.99 497.2,179.46 494.44,178.81C491.808,178.232 489.086,178.198 486.44,178.71C477.25,180.27 471.44,190.41 472.5,198.51C473.008,201.784 474.425,204.851 476.59,207.36C477.52,208.52 478.52,209.61 479.59,210.88C477.29,214.74 473.8,217.41 470.93,220.59C468.06,223.77 464.93,226.82 461.72,230.11C460.42,229.25 459.31,228.56 458.24,227.81C455.923,226.158 453.362,224.879 450.65,224.02C441.95,221.26 431.7,228.43 429.84,235.44C429.44,236.877 429.222,238.359 429.19,239.85C429.19,242.69 429.38,245.52 429.49,248.41C428.57,249.9 426.89,250.31 425.4,250.92C419.294,253.387 412.956,255.233 406.48,256.43C404.72,256.76 402.95,257.04 401.18,257.21C400.09,257.323 399.059,256.659 398.71,255.62C398.22,254.53 397.89,253.36 397.33,252.31C393.57,245.31 387.68,241.65 379.76,242.06C372.4,242.45 367.18,246.37 364.22,253.17C362.22,257.69 362.22,257.7 357.22,256.48L341.04,252.57C339.78,251.24 340.04,250.02 340.16,248.84C340.47,245.383 340.075,241.9 339,238.6C336.734,232.412 331.065,228.077 324.5,227.51C320.285,227.143 316.073,228.284 312.62,230.73C310.9,231.92 309.23,233.18 307.41,234.49C306.854,234.328 306.325,234.085 305.84,233.77C300.16,228.657 294.493,223.527 288.84,218.38C288.64,218.19 288.59,217.85 288.33,217.27C288.99,216.17 289.76,214.91 290.51,213.65C292.484,210.643 293.736,207.221 294.17,203.65C294.83,196.15 289.28,188.2 282.02,186.26C278.859,185.274 275.495,185.126 272.26,185.83C271.24,186.059 270.195,186.163 269.15,186.14C268.22,186.154 267.378,185.574 267.06,184.7C266.882,184.29 266.728,183.869 266.6,183.44C264.14,175.267 261.683,167.097 259.23,158.93C259.13,158.626 259.054,158.315 259,158C258.41,154 258.83,153.16 262.3,151.73C265.667,150.396 268.572,148.109 270.66,145.15C272.862,142.134 274.05,138.494 274.05,134.759C274.05,128.906 271.133,123.422 266.28,120.15C264.75,119.215 263.152,118.396 261.5,117.7C260.44,117.2 259.35,116.77 258.04,116.2C259.63,108.75 261.84,101.62 263.53,94.36C263.89,93.216 264.317,92.094 264.81,91C265.575,90.924 266.345,90.924 267.11,91C270.059,91.53 273.085,91.469 276.01,90.82C283.01,89.6 286.93,85.06 289.26,78.82C290.474,75.541 290.326,71.909 288.85,68.74C287.832,66.579 286.683,64.482 285.41,62.46C284.65,61.19 283.71,60.03 282.9,58.89C284.9,55.72 297.79,42.32 300.83,40.24C301.83,40.92 302.95,41.64 304.03,42.4C311.85,47.87 318.49,48.08 326.8,42.25C329.86,40.06 332.362,37.178 334.1,33.84C335.425,31.476 336.114,28.809 336.1,26.1C336.05,20.26 336.1,14.41 336.1,8.57C336.1,3.97 336.44,3.57 340.78,2.27C341.308,2.17 341.843,2.114 342.38,2.1C342.707,2.875 342.948,3.683 343.1,4.51C343.23,6.15 343.17,7.8 343.17,9.45L343.17,176.24C343.17,181.19 343.28,186.16 344.69,190.93C348,202.3 355,210.51 366.54,214.07C375.54,216.84 384.64,216.65 393.3,212.64C403.35,207.98 409.24,199.84 411.83,189.17C412.545,185.802 412.854,182.361 412.75,178.92L412.75,6.29C412.75,4.79 412.75,3.29 412.82,1.79C412.89,0.29 413.9,-0.21 415.36,0.09C416.08,0.27 416.79,0.52 417.5,0.76C419.72,1.5 420.08,1.88 420.12,4.31C420.19,9.1 420.12,13.9 420.17,18.69C420.17,21.09 420.27,23.5 420.17,25.89C420.075,28.144 420.784,30.36 422.17,32.14C425.36,36.748 430.057,40.104 435.45,41.63C439.686,42.877 444.264,42.193 447.95,39.76C449.84,38.56 451.56,37.09 453.36,35.76C453.82,35.41 454.33,35.11 454.69,34.87ZM420.56,59.74C419.93,61.54 420.16,63.35 420.16,65.12L420.16,179.78C420.192,182.773 419.975,185.763 419.51,188.72C417.989,198.43 413.183,207.331 405.9,213.93C405.101,214.608 404.337,215.325 403.61,216.08C403.3,216.42 403.27,217.01 402.96,217.96C404.77,217.54 406.07,217.32 407.32,216.96C446.663,204.704 471.866,165.716 466.89,124.81C465.275,111.378 460.55,98.506 453.09,87.22C445.832,76.314 436.123,67.255 424.74,60.77C423.6,60.1 422.53,59.07 420.56,59.74ZM335.07,62C333.45,62.94 332.39,63.47 331.42,64.13C326.698,67.309 322.362,71.027 318.5,75.21C299.56,95.71 291.5,119.86 295.41,147.49C298.53,169.4 309,187.57 326,201.8C332.231,206.983 339.197,211.212 346.67,214.35C347.6,214.74 348.54,215.35 349.56,214.57C349.56,214.39 349.67,214.18 349.56,214.1C348.84,213.16 348.14,212.2 347.35,211.32C342.233,205.619 338.668,198.696 337,191.22C336.253,187.398 335.941,183.503 336.07,179.61L336.07,69.94C336.07,68.29 336.07,66.64 335.97,65C335.76,63.975 335.459,62.971 335.07,62Z" style="fill:white;fill-rule:nonzero;"/>
        </g>
    </g>
    <g transform="matrix(1,0,0,1,-403.611535,-108.081705)">
        <g transform="matrix(0.712648,0,0,0.712648,219.719845,108.076788)">
            <path d="M368.93,68.84C368.564,69.271 368.152,69.66 367.7,70C364.14,71.77 363.29,71.26 363.26,67.21L363.26,51.94C363.26,48.94 363.03,46.02 362.89,42.68C363.414,42.402 363.982,42.219 364.57,42.14L389.28,42.14C389.804,42.195 390.323,42.295 390.83,42.44C391.13,43.214 391.341,44.019 391.46,44.84C391.55,47.38 391.46,49.93 391.52,52.47C391.593,53.964 391.025,55.42 389.96,56.47C388.81,57.64 387.77,58.91 386.55,60.28C386.991,61.037 387.504,61.75 388.08,62.41C389.69,63.97 391.44,65.41 393.08,66.94C393.907,67.802 394.688,68.706 395.42,69.65C392.11,70.65 390.68,70.65 388.06,69.05C385.26,67.34 382.65,65.3 380,63.36C378.79,62.48 377.67,61.48 376.5,60.55C375.421,59.71 374.043,59.348 372.69,59.55C370.13,59.82 369.3,60.62 369.16,63.22C369,65.18 369,67.11 368.93,68.84ZM385.17,47.37C380.29,46.53 373.17,46.71 370.11,47.77C369.383,49.667 369.544,51.794 370.55,53.56C374.832,53.805 379.125,53.835 383.41,53.65C384.653,53.627 385.717,52.723 385.94,51.5C386.528,50.095 386.224,48.468 385.17,47.37Z" style="fill:white;fill-rule:nonzero;"/>
        </g>
    </g>
    <g transform="matrix(1,0,0,1,-403.611535,-108.081705)">
        <g transform="matrix(0.712648,0,0,0.712648,219.719845,108.076788)">
            <path d="M388.69,185.51C388.94,191.51 383.18,196.36 377.79,196.13C371.74,195.87 367.38,191.36 367.48,185.02C367.479,184.948 367.478,184.876 367.478,184.803C367.478,179.076 372.191,174.363 377.918,174.363C378.042,174.363 378.166,174.366 378.29,174.37C384.054,174.548 388.698,179.338 388.698,185.105C388.698,185.24 388.695,185.375 388.69,185.51Z" style="fill:white;fill-rule:nonzero;"/>
        </g>
    </g>
    <g transform="matrix(1,0,0,1,-403.611535,-108.081705)">
        <g transform="matrix(0.712648,0,0,0.712648,219.719845,108.076788)">
            <path d="M389.19,130.08C387.863,132.782 385.193,134.583 382.19,134.8C375.79,135.15 369.36,135.04 362.73,134.8C362.489,133.894 362.338,132.966 362.28,132.03C362.38,130.03 362.99,129.36 365.07,129.35L388,129.35C388.27,129.42 388.51,129.69 389.19,130.08Z" style="fill:white;fill-rule:nonzero;"/>
        </g>
    </g>
    <g transform="matrix(1,0,0,1,-403.611535,-108.081705)">
        <g transform="matrix(0.712648,0,0,0.712648,219.719845,108.076788)">
            <path d="M389.41,118.86C387.31,121.94 385.04,123.49 381.98,123.54C376.293,123.62 370.6,123.62 364.9,123.54C362.71,123.54 361.96,122.4 362.36,120.33C362.471,119.409 363.208,118.68 364.13,118.58C364.723,118.497 365.322,118.463 365.92,118.48L387.04,118.48C387.837,118.562 388.628,118.689 389.41,118.86Z" style="fill:white;fill-rule:nonzero;"/>
        </g>
    </g>
    <g transform="matrix(1,0,0,1,-403.611535,-108.081705)">
        <g transform="matrix(0.712648,0,0,0.712648,219.719845,108.076788)">
            <path d="M362.71,112.29C362.506,111.555 362.375,110.801 362.32,110.04C362.37,108.43 362.93,107.86 364.41,107.69C364.855,107.637 365.302,107.614 365.75,107.62L387.28,107.62C387.716,107.661 388.148,107.741 388.57,107.86C388.005,110.159 386.166,111.939 383.85,112.43C383.115,112.566 382.368,112.626 381.62,112.61L365.03,112.61C364.25,112.556 363.475,112.449 362.71,112.29Z" style="fill:white;fill-rule:nonzero;"/>
        </g>
    </g>
    <g transform="matrix(1,0,0,1,-403.611535,-108.081705)">
        <g transform="matrix(0.712648,0,0,0.712648,623.344887,-45.901995)">
            <path d="M393.53,358.6L393.53,315.2C396.53,314.2 400.23,314.11 405.39,314.81C405.585,315.783 405.712,316.769 405.77,317.76L405.77,369.92C405.49,373.49 404.37,374.63 400.7,374.76C398,374.86 395.3,374.76 392.6,374.76C390.754,374.799 389.039,373.78 388.19,372.14C387.59,371.14 387.05,370.04 386.52,368.97C381.81,359.43 377.08,349.9 372.44,340.33C371,337.33 369.8,334.33 368.44,331.28C368.137,330.664 367.803,330.063 367.44,329.48C366.52,331.02 367.05,332.17 367.07,333.25C367.07,334.6 367.17,335.95 367.2,337.25C367.23,338.55 367.2,339.65 367.2,340.85L367.2,370.6C367.2,371.8 367.08,372.94 367,374.29C363.093,375.036 359.086,375.094 355.16,374.46C354.981,373.414 354.857,372.359 354.79,371.3L354.79,320.49C354.79,315.43 355.79,314.49 360.89,314.49C362.99,314.49 365.09,314.57 367.19,314.49C369.348,314.337 371.388,315.533 372.31,317.49C372.97,318.66 373.57,319.87 374.16,321.09C380.04,333.217 385.913,345.35 391.78,357.49C392.063,357.979 392.38,358.446 392.73,358.89L393.53,358.6Z" style="fill:white;fill-rule:nonzero;"/>
        </g>
    </g>
    <g transform="matrix(1,0,0,1,-403.611535,-108.081705)">
        <g transform="matrix(0.712648,0,0,0.712648,623.344887,-45.901995)">
            <path d="M540.12,358.58C540.02,353.8 539.86,349.03 539.81,344.25L539.81,329.43C539.81,324.65 539.65,319.87 539.96,314.97C543.87,313.87 547.56,314.67 551.44,314.4C551.7,315.46 551.96,316.28 552.08,317.11C552.13,317.859 552.13,318.611 552.08,319.36L552.08,367.43C552.09,368.925 551.99,370.419 551.78,371.9C551.672,373.319 550.512,374.449 549.09,374.52C545.36,374.66 541.62,374.63 537.89,374.59C536.661,374.5 535.563,373.781 534.99,372.69C534.263,371.549 533.595,370.37 532.99,369.16C528.163,359.36 523.343,349.553 518.53,339.74C517.29,337.19 516.24,334.54 515.09,331.94C514.8,331.29 514.46,330.66 514.09,329.94C513.09,331.38 513.17,331.38 513.51,335.84C513.69,338.07 513.62,340.33 513.64,342.57C513.66,344.81 513.64,346.77 513.64,348.86L513.64,361.44C513.64,363.69 513.72,365.94 513.64,368.18C513.55,370.23 514.11,372.37 512.94,374.57C509.285,375.001 505.59,374.977 501.94,374.5C500.84,372.92 501.2,371.22 501.2,369.62L501.2,321.55C501.178,320.354 501.242,319.157 501.39,317.97C501.459,316.079 503.028,314.559 504.92,314.55C508.21,314.39 511.51,314.46 514.81,314.55C516.189,314.597 517.451,315.354 518.14,316.55C518.94,317.811 519.661,319.12 520.3,320.47C526.26,332.723 532.213,344.973 538.16,357.22C538.492,357.814 538.863,358.385 539.27,358.93L540.12,358.58Z" style="fill:white;fill-rule:nonzero;"/>
        </g>
    </g>
    <g transform="matrix(1,0,0,1,-403.611535,-108.081705)">
        <g transform="matrix(0.712648,0,0,0.712648,623.344887,-45.901995)">
            <path d="M714,374.39C709.569,374.92 705.094,374.984 700.65,374.58C700.225,373.649 699.854,372.694 699.54,371.72C698.38,367.22 697.28,362.72 696.14,358.22C695.832,357.057 695.451,355.915 695,354.8C694.273,352.758 692.375,351.351 690.21,351.25C686.745,350.975 683.265,350.975 679.8,351.25C679.1,353.99 679.47,356.53 679.4,359.03C679.33,361.53 679.4,363.83 679.4,366.22L679.4,373.78C677.33,375.37 675.16,374.78 673.15,374.78C671.14,374.78 668.97,375.21 666.8,374.2C666.636,373.505 666.519,372.8 666.45,372.09C666.06,363.21 666.34,318.5 666.84,314.75C667.625,314.525 668.428,314.368 669.24,314.28C676.72,314.02 684.24,313.61 691.7,313.68C695.288,313.814 698.849,314.365 702.31,315.32C707.09,316.5 709.94,319.8 711.06,324.6C712.064,328.687 712.116,332.95 711.21,337.06C710.21,341.36 707.84,344.32 703.57,345.67C702.89,345.88 702.24,346.17 701.66,346.4C701.66,347.93 702.81,347.86 703.47,348.26C705.607,349.418 707.232,351.34 708.02,353.64C710.06,360.34 711.91,367.11 714,374.39ZM679.45,323.91C679.45,327.17 679.38,329.86 679.45,332.54C679.52,335.22 678.95,338.15 680.03,340.93C683.819,341.309 687.635,341.339 691.43,341.02C692.325,340.927 693.209,340.75 694.07,340.49C696.028,340.067 697.583,338.563 698.07,336.62C698.83,334.016 698.903,331.26 698.28,328.62C697.884,326.163 695.875,324.261 693.4,324C688.93,323.26 684.48,323.57 679.42,323.91L679.45,323.91Z" style="fill:white;fill-rule:nonzero;"/>
        </g>
    </g>
    <g transform="matrix(1,0,0,1,-403.611535,-108.081705)">
        <g transform="matrix(0.712648,0,0,0.712648,623.344887,-45.901995)">
            <path d="M34.94,346.94C36.521,347.891 37.999,349.003 39.35,350.26C40.528,351.612 41.411,353.196 41.94,354.91C43.72,360.78 45.28,366.72 46.94,372.64C47.002,373.138 47.002,373.642 46.94,374.14C44.86,375.25 42.59,374.71 40.43,374.78C38.27,374.85 36.27,374.7 34.04,374.65C33.59,373.35 33.13,372.27 32.85,371.14C31.85,367.08 30.85,363 29.85,358.93C29.579,357.763 29.245,356.611 28.85,355.48C28.133,352.933 25.786,351.166 23.14,351.18C20,351.1 16.86,351.18 13.43,351.18C13.167,352.164 12.983,353.167 12.88,354.18C12.82,359.27 12.88,364.37 12.88,369.46L12.88,374.12C8.68,375.25 4.75,374.81 0.74,374.45C-0.17,372.6 0.11,370.78 0.11,369.03L0.11,320.47C0.11,318.68 0.17,316.89 0.21,314.93C1.07,314.61 1.962,314.382 2.87,314.25C10.51,313.98 18.15,313.67 25.79,313.6C29.397,313.591 32.98,314.185 36.39,315.36C40.339,316.564 43.38,319.757 44.39,323.76C45.547,327.965 45.701,332.384 44.84,336.66C43.96,341.28 41.37,344.56 36.58,345.75C36.16,345.889 35.757,346.077 35.38,346.31C35.22,346.39 35.17,346.57 34.94,346.94ZM13.4,340.57C16.99,341.48 24.4,341.39 27.5,340.52C29.766,340.04 31.472,338.135 31.7,335.83C31.98,333.468 31.98,331.082 31.7,328.72C31.463,326.409 29.716,324.518 27.43,324.1C24.43,323.32 16.91,323.38 13.28,324.28C12.57,328.24 12.64,337.29 13.4,340.57Z" style="fill:white;fill-rule:nonzero;"/>
        </g>
    </g>
    <g transform="matrix(1,0,0,1,-403.611535,-108.081705)">
        <g transform="matrix(0.712648,0,0,0.712648,623.344887,-45.901995)">
            <path d="M216.18,374.47C214.97,374.59 213.94,374.78 212.91,374.78C210.08,374.78 207.24,374.78 204.68,374.69C203.45,373.44 203.68,372.19 203.68,371.03L203.68,348.55C203.109,348.192 202.485,347.929 201.83,347.77C195.69,347.77 189.55,347.77 183.4,347.82C183.13,347.82 182.86,348.03 182.24,348.29C182.048,349.355 181.921,350.43 181.86,351.51L181.86,369.51C181.86,370.99 181.77,372.51 181.71,374.16C177.48,375.4 173.39,374.64 169.14,374.66C168.955,373.668 168.825,372.666 168.75,371.66L168.75,317.26C168.75,316.52 168.87,315.79 168.96,314.79C173.13,314.04 177.23,314.34 181.59,314.63C181.69,315.84 181.85,316.84 181.86,317.85L181.86,332.69C181.86,334.15 181.98,335.62 182.05,336.99C185.38,337.84 197.18,337.99 203.14,337.35C203.398,336.417 203.572,335.464 203.66,334.5C203.72,329.41 203.66,324.31 203.71,319.22C203.71,317.76 203.85,316.3 203.93,314.92C208.039,314.222 212.234,314.198 216.35,314.85C216.47,315.85 216.69,316.85 216.72,317.85C217.21,335.4 216.93,370.05 216.18,374.47Z" style="fill:white;fill-rule:nonzero;"/>
        </g>
    </g>
    <g transform="matrix(1,0,0,1,-403.611535,-108.081705)">
        <g transform="matrix(0.712648,0,0,0.712648,623.344887,-45.901995)">
            <path d="M451.51,361.35C452.11,354.65 451.36,347.76 451.95,340.77C455.95,339.77 459.79,340.3 463.8,340.28C464.059,341.179 464.24,342.099 464.34,343.03L464.34,372.24C464.292,372.911 464.209,373.578 464.09,374.24C461.16,375.19 458.23,374.73 455.09,374.58C454.55,372.99 454.03,371.47 453.42,369.66C452.646,369.942 451.905,370.308 451.21,370.75C447.671,373.56 443.418,375.33 438.93,375.86C435.651,376.318 432.311,376.045 429.15,375.06C425.073,373.836 421.729,370.89 420,367C418.445,363.585 417.449,359.942 417.05,356.21C416.015,348.913 416.015,341.507 417.05,334.21C417.443,331.699 418,329.217 418.72,326.78C420.66,320.12 425.3,316.21 431.88,314.59C434.505,313.961 437.184,313.586 439.88,313.47C445.864,313.034 451.88,313.337 457.79,314.37C459.08,314.62 460.35,315 461.79,315.37C462.088,318.479 461.782,321.617 460.89,324.61C459.89,324.69 458.89,324.85 457.89,324.83C453.89,324.74 449.81,324.54 445.76,324.49C443.816,324.497 441.873,324.603 439.94,324.81C435.29,325.22 432.76,328.12 431.37,332.26C431.112,333.124 430.945,334.012 430.87,334.91C429.928,342.196 430.052,349.58 431.24,356.83C431.521,358.612 432.255,360.292 433.37,361.71C434.684,363.369 436.6,364.447 438.7,364.71C443.239,365.245 447.818,364.044 451.51,361.35Z" style="fill:white;fill-rule:nonzero;"/>
        </g>
    </g>
    <g transform="matrix(1,0,0,1,-403.611535,-108.081705)">
        <g transform="matrix(0.712648,0,0,0.712648,623.344887,-45.901995)">
            <path d="M92,314.59C95.996,314.341 100.004,314.341 104,314.59C105.35,315.78 105,317.21 105,318.5C105,325.4 105.07,332.29 105,339.18C105,345.02 104.87,350.87 104.62,356.7C104.477,358.943 104.088,361.163 103.46,363.32C102.159,369.004 97.689,373.454 92,374.73C84.711,376.639 77.043,376.57 69.79,374.53C63.49,372.79 59.32,368.8 57.88,362.36C57.096,359.161 56.637,355.891 56.51,352.6C56.34,340.77 56.41,328.93 56.41,317.09C56.458,316.326 56.548,315.564 56.68,314.81C58.89,314.11 60.98,314.49 63.04,314.42C65.1,314.35 66.91,314.42 68.65,314.42C70.11,315.88 69.65,317.42 69.65,318.89L69.65,349.46C69.664,352.155 69.875,354.846 70.28,357.51C71.05,362.45 73.28,364.64 78.15,365.34C79.927,365.6 81.733,365.6 83.51,365.34C88.2,364.62 90.42,362.48 91.18,357.82C91.62,355.008 91.851,352.166 91.87,349.32C91.95,339.58 91.87,329.84 91.87,320.1L92,314.59Z" style="fill:white;fill-rule:nonzero;"/>
        </g>
    </g>
    <g transform="matrix(1,0,0,1,-403.611535,-108.081705)">
        <g transform="matrix(0.712648,0,0,0.712648,623.344887,-45.901995)">
            <path d="M262.28,359C255.01,359 248.28,358.93 241.58,359C239.28,364 238.79,369.35 236.78,374.1C232.621,374.916 228.349,374.974 224.17,374.27C223.59,372.95 224.38,371.71 224.74,370.52C228.94,356.64 233.22,342.79 237.47,328.93C238.52,325.5 239.53,322.05 240.64,318.64C241.75,315.23 242.81,314.41 246.51,314.35C250.21,314.29 253.69,314.3 257.28,314.35C260.87,314.4 261.78,315.11 262.82,318.4C265.15,325.82 267.38,333.27 269.66,340.7C272.627,350.42 275.593,360.143 278.56,369.87C278.99,371.26 279.32,372.68 279.69,374.1C275.399,374.941 270.987,374.958 266.69,374.15L262.28,359ZM259,348.28C258.984,347.747 258.934,347.216 258.85,346.69C257.017,339.777 255.183,332.867 253.35,325.96C253.27,325.68 253.24,325.3 253.05,325.14C252.645,324.764 252.154,324.493 251.62,324.35C251.185,324.374 250.785,324.6 250.54,324.96C250.256,325.483 250.054,326.046 249.94,326.63C248.26,332.81 246.58,338.99 244.94,345.18C244.67,346.18 244.58,347.18 244.41,348.18C249.238,348.983 254.162,349.017 259,348.28Z" style="fill:white;fill-rule:nonzero;"/>
        </g>
    </g>
    <g transform="matrix(1,0,0,1,-403.611535,-108.081705)">
        <g transform="matrix(0.712648,0,0,0.712648,623.344887,-45.901995)">
            <path d="M655.77,315.27C656.396,318.289 656.241,321.418 655.32,324.36C654.358,324.537 653.386,324.654 652.41,324.71L633.54,324.71C629.46,324.84 628.43,325.78 628.31,329.71C628.22,332.39 628.31,335.08 628.31,338.04C629.326,338.318 630.363,338.512 631.41,338.62L647.58,338.62C649.05,338.62 650.52,338.73 652.23,338.8C652.84,341.8 652.45,344.58 652.51,347.6C651.465,347.822 650.406,347.976 649.34,348.06C643.95,348.11 638.55,348.06 633.16,348.06C631.584,347.887 629.988,348.082 628.5,348.63C628.175,352.774 628.175,356.936 628.5,361.08C628.64,363.16 629.95,364.28 632.01,364.53C633.054,364.625 634.102,364.655 635.15,364.62L655.38,364.62C656.51,367.78 656.25,370.72 656.11,373.87C655.245,374.09 654.367,374.25 653.48,374.35C645.55,374.61 637.62,374.88 629.69,375.04C627.898,375.059 626.109,374.871 624.36,374.48C619.26,373.39 616.36,370.11 615.36,365.05C615.177,363.866 615.103,362.668 615.14,361.47L615.14,327.35C615.147,325.856 615.314,324.368 615.64,322.91C616.78,317.98 620.17,315.38 624.94,314.32C625.233,314.26 625.531,314.23 625.83,314.23C635.11,314.35 644.39,314.483 653.67,314.63C654.392,314.762 655.097,314.977 655.77,315.27Z" style="fill:white;fill-rule:nonzero;"/>
        </g>
    </g>
    <g transform="matrix(1,0,0,1,-403.611535,-108.081705)">
        <g transform="matrix(0.712648,0,0,0.712648,623.344887,-45.901995)">
            <path d="M605.6,315.37C605.829,318.372 605.59,321.392 604.89,324.32C603.879,324.511 602.857,324.638 601.83,324.7C596.59,324.7 591.34,324.77 586.1,324.7C578.25,324.61 577.52,324.7 577.75,333.3C577.75,334.91 577.52,336.57 578.2,338.35C580.72,338.95 583.2,338.6 585.76,338.66C588.45,338.72 591.15,338.66 593.84,338.66C596.443,338.529 599.052,338.619 601.64,338.93C602.131,341.81 602.161,344.75 601.73,347.64C600.742,347.865 599.74,348.019 598.73,348.1C593.49,348.15 588.25,348.1 583.01,348.1L578.37,348.1C578.089,348.987 577.888,349.897 577.77,350.82C577.71,353.96 577.66,357.11 577.77,360.25C577.88,363.39 579.1,364.57 582.24,364.63C588.08,364.73 593.92,364.63 599.76,364.68C601.39,364.68 603.03,364.73 604.66,364.76C605.82,367.85 605.66,370.76 605.5,373.95C604.766,374.151 604.017,374.292 603.26,374.37C595.18,374.64 587.1,374.93 579.02,375.09C577.08,375.111 575.145,374.889 573.26,374.43C568.419,373.378 564.857,369.178 564.61,364.23C564.53,363.23 564.55,362.14 564.55,361.09L564.55,327.94C564.55,326.89 564.55,325.84 564.63,324.8C565.056,319.548 569.07,315.242 574.28,314.45C574.577,314.392 574.878,314.359 575.18,314.35C584.447,314.47 593.723,314.6 603.01,314.74C603.89,314.872 604.757,315.083 605.6,315.37Z" style="fill:white;fill-rule:nonzero;"/>
        </g>
    </g>
    <g transform="matrix(1,0,0,1,-403.611535,-108.081705)">
        <g transform="matrix(0.712648,0,0,0.712648,623.344887,-45.901995)">
            <path d="M721.8,373.36C721.95,370.59 722.09,367.94 722.22,365.61C723.44,364.23 724.7,364.55 725.86,364.56C731.55,364.56 737.25,364.73 742.95,364.74C744.593,364.722 746.23,364.547 747.84,364.22C749.671,363.882 751.068,362.363 751.25,360.51C751.85,357.43 751.18,353.89 747.25,352.51C743.32,351.13 739.34,349.75 735.41,348.27C733.152,347.477 730.953,346.525 728.83,345.42C724.338,343.085 721.412,338.527 721.16,333.47C720.932,330.784 720.948,328.083 721.21,325.4C721.84,319.22 724.8,315.87 730.77,314.46C733.101,313.912 735.478,313.578 737.87,313.46C744.306,312.996 750.774,313.294 757.14,314.35C758.75,314.65 760.33,315.05 762.06,315.43C762.637,318.329 762.391,321.333 761.35,324.1C760.03,324.1 758.71,324.22 757.35,324.21C752.41,324.21 747.46,324.1 742.51,324.15C740.721,324.217 738.94,324.414 737.18,324.74C735.639,324.937 734.408,326.144 734.18,327.68C733.4,331.09 734.08,334.61 738.18,336.05C741.57,337.24 744.96,338.42 748.34,339.64C750.73,340.51 753.16,341.31 755.45,342.4C760.363,344.559 763.757,349.195 764.33,354.53C764.839,358.094 764.713,361.72 763.96,365.24C763.26,369.659 759.991,373.259 755.66,374.38C752.052,375.381 748.333,375.925 744.59,376C737.544,376.129 730.505,375.509 723.59,374.15C722.971,373.941 722.371,373.677 721.8,373.36Z" style="fill:white;fill-rule:nonzero;"/>
        </g>
    </g>
    <g transform="matrix(1,0,0,1,-403.611535,-108.081705)">
        <g transform="matrix(0.712648,0,0,0.712648,623.344887,-45.901995)">
            <path d="M344.48,315.43C344.48,316.63 344.54,317.52 344.48,318.43C344.32,320.36 344.1,322.28 343.87,324.43C342.52,324.55 341.36,324.74 340.2,324.75L322.68,324.75C317.41,324.75 316.68,325.49 316.63,330.68C316.63,333.18 316.3,335.68 317.01,338.36C319.63,338.97 322.17,338.63 324.68,338.69C327.19,338.75 329.77,338.69 332.32,338.69L340.08,338.69C341.25,341.84 340.74,344.69 340.51,347.88C332.62,348.58 325,347.79 317.2,348.37C316.936,349.194 316.752,350.041 316.65,350.9C316.59,354.04 316.53,357.19 316.65,360.33C316.77,363.47 317.94,364.64 321.12,364.69C327.12,364.8 333.12,364.69 339.12,364.75C340.59,364.75 342.06,364.86 343.73,364.93C344.23,368.04 344.81,370.93 344.37,374.02C343.78,374.208 343.174,374.342 342.56,374.42C334.03,374.69 325.5,375 316.97,375.15C315.024,375.176 313.087,374.875 311.24,374.26C306.933,373.024 303.856,369.183 303.59,364.71C303.502,363.666 303.468,362.618 303.49,361.57L303.49,325.19C303.87,319.37 307.83,314.65 313.62,314.49C323.18,314.23 332.77,314.66 342.35,314.83C343.081,314.947 343.795,315.149 344.48,315.43Z" style="fill:white;fill-rule:nonzero;"/>
        </g>
    </g>
    <g transform="matrix(1,0,0,1,-403.611535,-108.081705)">
        <g transform="matrix(0.712648,0,0,0.712648,623.344887,-45.901995)">
            <path d="M158.25,315.5C158.354,316.044 158.411,316.596 158.42,317.15C158.14,319.52 157.82,321.89 157.49,324.53C156.501,324.732 155.498,324.862 154.49,324.92C149.997,324.92 145.507,324.853 141.02,324.72C134.22,324.57 130.69,327.36 129.62,334.65C128.62,341.172 128.62,347.808 129.62,354.33C129.69,354.77 129.72,355.22 129.81,355.66C131,361.79 134.04,364.53 140.28,364.66C145.07,364.73 149.86,364.41 154.64,364.25C155.81,364.25 156.98,364.13 158.34,364.06C159.57,367.06 159.45,370.06 159.58,373.21C158.692,373.691 157.757,374.08 156.79,374.37C149.11,375.83 141.38,376.75 133.59,375.37C131.091,374.926 128.651,374.195 126.32,373.19C122.678,371.638 119.841,368.641 118.49,364.92C117.26,361.869 116.394,358.684 115.91,355.43C114.757,347.258 114.943,338.952 116.46,330.84C116.842,329.09 117.336,327.366 117.94,325.68C119.735,320.315 124.14,316.216 129.62,314.81C131.328,314.248 133.092,313.869 134.88,313.68C141.893,313.07 148.957,313.406 155.88,314.68C156.688,314.899 157.479,315.173 158.25,315.5Z" style="fill:white;fill-rule:nonzero;"/>
        </g>
    </g>
    <g transform="matrix(1,0,0,1,-403.611535,-108.081705)">
        <g transform="matrix(0.712648,0,0,0.712648,623.344887,-45.901995)">
            <path d="M488.5,314.88L488.5,374C486.5,375.35 484.35,374.76 482.33,374.79C480.31,374.82 478.15,375.16 475.92,374.29C475.73,373.461 475.606,372.619 475.55,371.77L475.55,316.95C475.55,316.37 475.67,315.78 475.73,315.22C478.55,314.22 483.12,314.09 488.5,314.88Z" style="fill:white;fill-rule:nonzero;"/>
        </g>
    </g>
</svg>
