<?xml version="1.0" encoding="UTF-8" standalone="no"?>
<!DOCTYPE svg PUBLIC "-//W3C//DTD SVG 1.1//EN" "http://www.w3.org/Graphics/SVG/1.1/DTD/svg11.dtd">
<svg width="100%" height="100%" viewBox="0 0 176 184" version="1.1" xmlns="http://www.w3.org/2000/svg" xmlns:xlink="http://www.w3.org/1999/xlink" xml:space="preserve" xmlns:serif="http://www.serif.com/" style="fill-rule:evenodd;clip-rule:evenodd;stroke-linejoin:round;stroke-miterlimit:2;">
    <g transform="matrix(1,0,0,1,-403.611535,-108.081705)">
        <g transform="matrix(0.712648,0,0,0.712648,219.719845,108.076788)">
            <path d="M454.69,34.87C455.18,34.98 455.55,34.95 455.74,35.12C461.54,40.333 467.323,45.557 473.09,50.79C473.547,51.295 473.962,51.837 474.33,52.41C473.59,53.67 472.78,54.91 472.13,56.22C470.925,58.45 469.879,60.763 469,63.14C466,72.25 473.07,81.14 479.8,83.25C482.916,84.396 486.304,84.587 489.53,83.8C490.942,83.508 492.372,83.314 493.81,83.22C498.03,89.41 503.58,107.95 503.81,116.48C503.06,116.94 502.21,117.48 501.33,118C499.26,119.2 497.11,120.26 495.12,121.58C486.73,127.13 485.9,141.73 494.9,147.87C496.63,149.05 498.45,150.09 500.26,151.15C501.41,151.82 502.6,152.42 503.88,153.15C504.001,154.19 504.001,155.24 503.88,156.28C502.193,162.947 500.45,169.613 498.65,176.28C497.92,178.99 497.2,179.46 494.44,178.81C491.808,178.232 489.086,178.198 486.44,178.71C477.25,180.27 471.44,190.41 472.5,198.51C473.008,201.784 474.425,204.851 476.59,207.36C477.52,208.52 478.52,209.61 479.59,210.88C477.29,214.74 473.8,217.41 470.93,220.59C468.06,223.77 464.93,226.82 461.72,230.11C460.42,229.25 459.31,228.56 458.24,227.81C455.923,226.158 453.362,224.879 450.65,224.02C441.95,221.26 431.7,228.43 429.84,235.44C429.44,236.877 429.222,238.359 429.19,239.85C429.19,242.69 429.38,245.52 429.49,248.41C428.57,249.9 426.89,250.31 425.4,250.92C419.294,253.387 412.956,255.233 406.48,256.43C404.72,256.76 402.95,257.04 401.18,257.21C400.09,257.323 399.059,256.659 398.71,255.62C398.22,254.53 397.89,253.36 397.33,252.31C393.57,245.31 387.68,241.65 379.76,242.06C372.4,242.45 367.18,246.37 364.22,253.17C362.22,257.69 362.22,257.7 357.22,256.48L341.04,252.57C339.78,251.24 340.04,250.02 340.16,248.84C340.47,245.383 340.075,241.9 339,238.6C336.734,232.412 331.065,228.077 324.5,227.51C320.285,227.143 316.073,228.284 312.62,230.73C310.9,231.92 309.23,233.18 307.41,234.49C306.854,234.328 306.325,234.085 305.84,233.77C300.16,228.657 294.493,223.527 288.84,218.38C288.64,218.19 288.59,217.85 288.33,217.27C288.99,216.17 289.76,214.91 290.51,213.65C292.484,210.643 293.736,207.221 294.17,203.65C294.83,196.15 289.28,188.2 282.02,186.26C278.859,185.274 275.495,185.126 272.26,185.83C271.24,186.059 270.195,186.163 269.15,186.14C268.22,186.154 267.378,185.574 267.06,184.7C266.882,184.29 266.728,183.869 266.6,183.44C264.14,175.267 261.683,167.097 259.23,158.93C259.13,158.626 259.054,158.315 259,158C258.41,154 258.83,153.16 262.3,151.73C265.667,150.396 268.572,148.109 270.66,145.15C272.862,142.134 274.05,138.494 274.05,134.759C274.05,128.906 271.133,123.422 266.28,120.15C264.75,119.215 263.152,118.396 261.5,117.7C260.44,117.2 259.35,116.77 258.04,116.2C259.63,108.75 261.84,101.62 263.53,94.36C263.89,93.216 264.317,92.094 264.81,91C265.575,90.924 266.345,90.924 267.11,91C270.059,91.53 273.085,91.469 276.01,90.82C283.01,89.6 286.93,85.06 289.26,78.82C290.474,75.541 290.326,71.909 288.85,68.74C287.832,66.579 286.683,64.482 285.41,62.46C284.65,61.19 283.71,60.03 282.9,58.89C284.9,55.72 297.79,42.32 300.83,40.24C301.83,40.92 302.95,41.64 304.03,42.4C311.85,47.87 318.49,48.08 326.8,42.25C329.86,40.06 332.362,37.178 334.1,33.84C335.425,31.476 336.114,28.809 336.1,26.1C336.05,20.26 336.1,14.41 336.1,8.57C336.1,3.97 336.44,3.57 340.78,2.27C341.308,2.17 341.843,2.114 342.38,2.1C342.707,2.875 342.948,3.683 343.1,4.51C343.23,6.15 343.17,7.8 343.17,9.45L343.17,176.24C343.17,181.19 343.28,186.16 344.69,190.93C348,202.3 355,210.51 366.54,214.07C375.54,216.84 384.64,216.65 393.3,212.64C403.35,207.98 409.24,199.84 411.83,189.17C412.545,185.802 412.854,182.361 412.75,178.92L412.75,6.29C412.75,4.79 412.75,3.29 412.82,1.79C412.89,0.29 413.9,-0.21 415.36,0.09C416.08,0.27 416.79,0.52 417.5,0.76C419.72,1.5 420.08,1.88 420.12,4.31C420.19,9.1 420.12,13.9 420.17,18.69C420.17,21.09 420.27,23.5 420.17,25.89C420.075,28.144 420.784,30.36 422.17,32.14C425.36,36.748 430.057,40.104 435.45,41.63C439.686,42.877 444.264,42.193 447.95,39.76C449.84,38.56 451.56,37.09 453.36,35.76C453.82,35.41 454.33,35.11 454.69,34.87ZM420.56,59.74C419.93,61.54 420.16,63.35 420.16,65.12L420.16,179.78C420.192,182.773 419.975,185.763 419.51,188.72C417.989,198.43 413.183,207.331 405.9,213.93C405.101,214.608 404.337,215.325 403.61,216.08C403.3,216.42 403.27,217.01 402.96,217.96C404.77,217.54 406.07,217.32 407.32,216.96C446.663,204.704 471.866,165.716 466.89,124.81C465.275,111.378 460.55,98.506 453.09,87.22C445.832,76.314 436.123,67.255 424.74,60.77C423.6,60.1 422.53,59.07 420.56,59.74ZM335.07,62C333.45,62.94 332.39,63.47 331.42,64.13C326.698,67.309 322.362,71.027 318.5,75.21C299.56,95.71 291.5,119.86 295.41,147.49C298.53,169.4 309,187.57 326,201.8C332.231,206.983 339.197,211.212 346.67,214.35C347.6,214.74 348.54,215.35 349.56,214.57C349.56,214.39 349.67,214.18 349.56,214.1C348.84,213.16 348.14,212.2 347.35,211.32C342.233,205.619 338.668,198.696 337,191.22C336.253,187.398 335.941,183.503 336.07,179.61L336.07,69.94C336.07,68.29 336.07,66.64 335.97,65C335.76,63.975 335.459,62.971 335.07,62Z" style="fill:rgb(242,115,39);fill-rule:nonzero;"/>
        </g>
        <g transform="matrix(0.712648,0,0,0.712648,219.719845,108.076788)">
            <path d="M368.93,68.84C368.564,69.271 368.152,69.66 367.7,70C364.14,71.77 363.29,71.26 363.26,67.21L363.26,51.94C363.26,48.94 363.03,46.02 362.89,42.68C363.414,42.402 363.982,42.219 364.57,42.14L389.28,42.14C389.804,42.195 390.323,42.295 390.83,42.44C391.13,43.214 391.341,44.019 391.46,44.84C391.55,47.38 391.46,49.93 391.52,52.47C391.593,53.964 391.025,55.42 389.96,56.47C388.81,57.64 387.77,58.91 386.55,60.28C386.991,61.037 387.504,61.75 388.08,62.41C389.69,63.97 391.44,65.41 393.08,66.94C393.907,67.802 394.688,68.706 395.42,69.65C392.11,70.65 390.68,70.65 388.06,69.05C385.26,67.34 382.65,65.3 380,63.36C378.79,62.48 377.67,61.48 376.5,60.55C375.421,59.71 374.043,59.348 372.69,59.55C370.13,59.82 369.3,60.62 369.16,63.22C369,65.18 369,67.11 368.93,68.84ZM385.17,47.37C380.29,46.53 373.17,46.71 370.11,47.77C369.383,49.667 369.544,51.794 370.55,53.56C374.832,53.805 379.125,53.835 383.41,53.65C384.653,53.627 385.717,52.723 385.94,51.5C386.528,50.095 386.224,48.468 385.17,47.37Z" style="fill:rgb(242,115,39);fill-rule:nonzero;"/>
        </g>
        <g transform="matrix(0.712648,0,0,0.712648,219.719845,108.076788)">
            <path d="M388.69,185.51C388.94,191.51 383.18,196.36 377.79,196.13C371.74,195.87 367.38,191.36 367.48,185.02C367.479,184.948 367.478,184.876 367.478,184.803C367.478,179.076 372.191,174.363 377.918,174.363C378.042,174.363 378.166,174.366 378.29,174.37C384.054,174.548 388.698,179.338 388.698,185.105C388.698,185.24 388.695,185.375 388.69,185.51Z" style="fill:rgb(242,115,39);fill-rule:nonzero;"/>
        </g>
        <g transform="matrix(0.712648,0,0,0.712648,219.719845,108.076788)">
            <path d="M389.19,130.08C387.863,132.782 385.193,134.583 382.19,134.8C375.79,135.15 369.36,135.04 362.73,134.8C362.489,133.894 362.338,132.966 362.28,132.03C362.38,130.03 362.99,129.36 365.07,129.35L388,129.35C388.27,129.42 388.51,129.69 389.19,130.08Z" style="fill:rgb(242,115,39);fill-rule:nonzero;"/>
        </g>
        <g transform="matrix(0.712648,0,0,0.712648,219.719845,108.076788)">
            <path d="M389.41,118.86C387.31,121.94 385.04,123.49 381.98,123.54C376.293,123.62 370.6,123.62 364.9,123.54C362.71,123.54 361.96,122.4 362.36,120.33C362.471,119.409 363.208,118.68 364.13,118.58C364.723,118.497 365.322,118.463 365.92,118.48L387.04,118.48C387.837,118.562 388.628,118.689 389.41,118.86Z" style="fill:rgb(242,115,39);fill-rule:nonzero;"/>
        </g>
        <g transform="matrix(0.712648,0,0,0.712648,219.719845,108.076788)">
            <path d="M362.71,112.29C362.506,111.555 362.375,110.801 362.32,110.04C362.37,108.43 362.93,107.86 364.41,107.69C364.855,107.637 365.302,107.614 365.75,107.62L387.28,107.62C387.716,107.661 388.148,107.741 388.57,107.86C388.005,110.159 386.166,111.939 383.85,112.43C383.115,112.566 382.368,112.626 381.62,112.61L365.03,112.61C364.25,112.556 363.475,112.449 362.71,112.29Z" style="fill:rgb(242,115,39);fill-rule:nonzero;"/>
        </g>
    </g>
</svg>
